<svg width="380" height="88" viewBox="0 0 380 88" fill="none" xmlns="http://www.w3.org/2000/svg">
<path d="M368.949 42.3376H357.169H345.388C342.978 42.3376 341.017 40.3768 341.017 37.9666V33.8968C341.017 31.4875 342.978 29.526 345.388 29.526H374.989C376.834 29.526 378.329 28.031 378.329 26.1861C378.329 24.3412 376.834 22.8462 374.989 22.8462H345.388C339.295 22.8462 334.338 27.8037 334.338 33.8968V37.9666C334.338 44.0604 339.295 49.018 345.388 49.018H357.169H368.949C371.359 49.018 373.32 50.9788 373.32 53.388V57.458C373.32 59.868 371.359 61.8288 368.949 61.8288H337.677C335.833 61.8288 334.338 63.3244 334.338 65.1684C334.338 67.0136 335.833 68.5092 337.677 68.5092H368.949C375.042 68.5092 380 63.5516 380 57.458V53.388C380 47.2948 375.042 42.3376 368.949 42.3376Z" fill="#EEEEF0"/>
<path d="M318.973 57.4578C318.973 59.8678 317.012 61.8286 314.602 61.8286H291.041C288.631 61.8286 286.67 59.8678 286.67 57.4578V33.8968C286.67 31.4866 288.631 29.526 291.041 29.526H314.602C317.012 29.526 318.973 31.4866 318.973 33.8968V57.4578ZM314.602 22.8462H291.041C284.947 22.8462 279.99 27.8037 279.99 33.8968V57.4578C279.99 63.5518 284.947 68.5082 291.041 68.5082H314.602C320.695 68.5082 325.653 63.5518 325.653 57.4578V33.8968C325.653 27.8037 320.695 22.8462 314.602 22.8462Z" fill="#EEEEF0"/>
<path d="M264.625 57.4578C264.625 59.8678 262.665 61.8286 260.255 61.8286H232.323V49.017H260.255C262.665 49.017 264.625 50.9778 264.625 53.3878V57.4578ZM264.625 33.8968V37.9666C264.625 40.3766 262.665 42.3374 260.255 42.3374H232.323V29.526H260.255C262.665 29.526 264.625 31.4866 264.625 33.8968ZM260.255 22.8462H228.983C228.406 22.8462 227.864 22.992 227.391 23.2493C227.201 23.3522 227.023 23.4723 226.858 23.6087C226.693 23.745 226.542 23.896 226.405 24.0616C225.929 24.6388 225.643 25.379 225.643 26.1861V65.1686C225.643 66.437 226.35 67.5402 227.391 68.1062C227.864 68.3626 228.406 68.5082 228.983 68.5082H260.255C266.349 68.5082 271.306 63.5518 271.306 57.4578V53.3878C271.306 50.391 270.104 47.6698 268.16 45.6774C270.104 43.685 271.306 40.9634 271.306 37.9666V33.8968C271.306 27.8037 266.349 22.8462 260.255 22.8462Z" fill="#EEEEF0"/>
<path d="M213.618 22.8462C211.773 22.8462 210.279 24.342 210.279 26.1861V57.4578C210.279 59.8678 208.318 61.8286 205.908 61.8286H182.347C179.937 61.8286 177.976 59.8678 177.976 57.4578V26.1861C177.976 24.342 176.481 22.8462 174.636 22.8462C172.791 22.8462 171.295 24.342 171.295 26.1861V57.4578C171.295 63.5518 176.253 68.5094 182.347 68.5094H205.908C212.001 68.5094 216.958 63.5518 216.958 57.4578V26.1861C216.958 24.342 215.463 22.8462 213.618 22.8462Z" fill="#EEEEF0"/>
<path d="M127.999 29.5263H159.271C161.116 29.5263 162.611 28.0313 162.611 26.1865C162.611 24.3415 161.116 22.8457 159.271 22.8457H127.999C121.906 22.8457 116.949 27.8032 116.949 33.8972V57.458C116.949 63.5512 121.906 68.5088 127.999 68.5088H159.271C161.116 68.5088 162.611 67.014 162.611 65.1688C162.611 63.324 161.116 61.8292 159.271 61.8292H127.999C125.589 61.8292 123.628 59.8684 123.628 57.458V33.8972C123.628 31.487 125.589 29.5263 127.999 29.5263Z" fill="#EEEEF0"/>
<path d="M6.68064 22.1167C6.68064 15.4549 12.1004 10.0351 18.7622 10.0351H65.884C72.546 10.0351 77.9656 15.4549 77.9656 22.1167V69.2388C77.9656 75.9004 72.546 81.3204 65.884 81.3204H18.7622C12.1004 81.3204 6.68064 75.9004 6.68064 69.2388V22.1167ZM18.7622 88H65.884C76.2296 88 84.6464 79.5844 84.6464 69.2388V22.1167C84.6464 11.7711 76.2296 3.35449 65.884 3.35449H18.7622C8.4166 3.35449 0 11.7711 0 22.1167V69.2388C0 79.5844 8.4166 88 18.7622 88Z" fill="#EEEEF0"/>
</svg>
